<svg height='100px' width='100px'  fill="#000000" xmlns="http://www.w3.org/2000/svg" xmlns:xlink="http://www.w3.org/1999/xlink" version="1.1" x="0px" y="0px" viewBox="7.5 7.5 50 50" enable-background="new 7.5 7.5 50 50" xml:space="preserve"><path d="M44.265,10.17c-4.054-2.456-8.114-2.779-11.766-0.971c-3.65-1.809-7.71-1.485-11.762,0.97  C13.739,14.407,8.259,24.216,8.259,32.5c0,8.283,5.48,18.092,12.477,22.33c2.341,1.418,4.686,2.13,6.952,2.13  c1.657,0,3.27-0.394,4.812-1.156c1.542,0.764,3.155,1.156,4.813,1.156c2.267,0,4.612-0.713,6.954-2.131  c6.995-4.238,12.476-14.047,12.476-22.329C56.741,24.217,51.261,14.409,44.265,10.17z M43.747,53.974  c-2.666,1.614-6.743,3.071-11.017,0.839c-0.015-0.008-0.03-0.007-0.045-0.013c-0.03-0.013-0.06-0.021-0.091-0.026  c-0.032-0.007-0.063-0.012-0.096-0.011c-0.032-0.001-0.063,0.004-0.096,0.011c-0.031,0.006-0.061,0.014-0.09,0.025  c-0.015,0.007-0.031,0.006-0.046,0.014c-4.272,2.234-8.346,0.776-11.013-0.838C14.527,49.9,9.259,40.468,9.259,32.5  s5.269-17.401,11.996-21.475c2.665-1.615,6.738-3.071,11.012-0.837c0.014,0.007,0.03,0.007,0.044,0.013  c0.031,0.013,0.061,0.021,0.093,0.027c0.032,0.006,0.063,0.011,0.094,0.01c0.032,0,0.063-0.004,0.094-0.01  c0.033-0.006,0.063-0.015,0.094-0.027c0.015-0.006,0.03-0.005,0.044-0.013c4.273-2.234,8.35-0.777,11.017,0.838  C50.473,15.1,55.741,24.533,55.741,32.5C55.741,40.467,50.473,49.899,43.747,53.974z"></path><path d="M38.365,29.338l3.47-1.312c0.351,0.697,1.065,1.181,1.897,1.181c1.175,0,2.131-0.956,2.131-2.13s-0.956-2.13-2.131-2.13  c-1.164,0-2.109,0.938-2.128,2.098l-8.606,3.254v-6.3l7.814-6.348c0.358,0.276,0.803,0.446,1.289,0.446  c1.175,0,2.131-0.956,2.131-2.131s-0.956-2.13-2.131-2.13s-2.13,0.956-2.13,2.13c0,0.326,0.079,0.631,0.211,0.908l-7.685,6.242  l-7.683-6.242c0.131-0.276,0.21-0.582,0.21-0.908c0-1.175-0.956-2.13-2.13-2.13c-1.175,0-2.131,0.956-2.131,2.13  s0.956,2.131,2.131,2.131c0.486,0,0.93-0.17,1.289-0.446l7.813,6.348v6.3l-8.606-3.254c-0.017-1.16-0.963-2.099-2.127-2.099  c-1.175,0-2.131,0.956-2.131,2.13s0.956,2.131,2.131,2.131c0.832,0,1.546-0.484,1.897-1.181l3.469,1.312l-9.072,6.306  c-0.386-0.546-1.02-0.905-1.737-0.905c-1.175,0-2.131,0.956-2.131,2.131c0,1.174,0.956,2.129,2.131,2.129s2.131-0.955,2.131-2.129  c0-0.09-0.016-0.177-0.027-0.264l9.84-6.839l3.964,1.499L22.401,45.06c-0.236-0.091-0.491-0.146-0.759-0.146  c-1.175,0-2.131,0.956-2.131,2.131c0,1.174,0.956,2.129,2.131,2.129s2.131-0.955,2.131-2.129c0-0.545-0.212-1.037-0.55-1.415  l8.775-12.975V43.75l-1.807,4.453c-0.1-0.014-0.198-0.03-0.301-0.03c-1.175,0-2.131,0.956-2.131,2.131s0.956,2.13,2.131,2.13  c1.174,0,2.13-0.955,2.13-2.13c0-0.715-0.357-1.346-0.898-1.732l1.377-3.393l1.378,3.393c-0.542,0.387-0.898,1.018-0.898,1.732  c0,1.175,0.955,2.13,2.13,2.13s2.131-0.955,2.131-2.13s-0.956-2.131-2.131-2.131c-0.104,0-0.202,0.017-0.302,0.03l-1.808-4.453  V32.654l8.776,12.975c-0.338,0.378-0.55,0.87-0.55,1.415c0,1.174,0.956,2.129,2.131,2.129s2.131-0.955,2.131-2.129  c0-1.175-0.956-2.131-2.131-2.131c-0.269,0-0.522,0.056-0.76,0.146l-9.329-13.793l3.965-1.499l9.84,6.839  c-0.011,0.087-0.026,0.174-0.026,0.264c0,1.174,0.956,2.129,2.131,2.129s2.13-0.955,2.13-2.129c0-1.175-0.955-2.131-2.13-2.131  c-0.718,0-1.352,0.359-1.737,0.905L38.365,29.338z M15.821,37.999c-0.624,0-1.131-0.507-1.131-1.129  c0-0.624,0.507-1.131,1.131-1.131s1.131,0.507,1.131,1.131C16.952,37.492,16.445,37.999,15.821,37.999z M29.89,51.434  c-0.624,0-1.131-0.507-1.131-1.13c0-0.624,0.507-1.131,1.131-1.131c0.623,0,1.13,0.507,1.13,1.131  C31.02,50.927,30.513,51.434,29.89,51.434z M36.238,50.304c0,0.623-0.507,1.13-1.131,1.13c-0.623,0-1.13-0.507-1.13-1.13  c0-0.624,0.507-1.131,1.13-1.131C35.731,49.173,36.238,49.68,36.238,50.304z M43.732,25.946c0.624,0,1.131,0.507,1.131,1.13  s-0.507,1.13-1.131,1.13s-1.131-0.507-1.131-1.13S43.108,25.946,43.732,25.946z M42.102,14.836c0.624,0,1.131,0.507,1.131,1.13  s-0.507,1.131-1.131,1.131c-0.347,0-0.646-0.166-0.854-0.413c-0.005-0.007-0.006-0.016-0.012-0.023  c-0.002-0.002-0.006-0.004-0.008-0.006c-0.152-0.192-0.257-0.425-0.257-0.689C40.972,15.343,41.479,14.836,42.102,14.836z   M21.765,15.966c0-0.624,0.507-1.13,1.131-1.13c0.623,0,1.13,0.507,1.13,1.13c0,0.264-0.104,0.496-0.256,0.688  c-0.002,0.003-0.006,0.004-0.009,0.007c-0.006,0.008-0.008,0.018-0.014,0.026c-0.208,0.245-0.506,0.41-0.851,0.41  C22.272,17.097,21.765,16.59,21.765,15.966z M21.265,28.207c-0.624,0-1.131-0.507-1.131-1.131c0-0.623,0.507-1.13,1.131-1.13  s1.131,0.507,1.131,1.13C22.396,27.7,21.888,28.207,21.265,28.207z M21.642,48.173c-0.624,0-1.131-0.507-1.131-1.129  c0-0.624,0.507-1.131,1.131-1.131s1.131,0.507,1.131,1.131C22.772,47.666,22.265,48.173,21.642,48.173z M44.486,47.044  c0,0.622-0.507,1.129-1.131,1.129s-1.131-0.507-1.131-1.129c0-0.624,0.507-1.131,1.131-1.131S44.486,46.42,44.486,47.044z   M49.176,35.739c0.623,0,1.13,0.507,1.13,1.131c0,0.622-0.507,1.129-1.13,1.129c-0.624,0-1.131-0.507-1.131-1.129  C48.045,36.246,48.552,35.739,49.176,35.739z"></path></svg>