<svg height='100px' width='100px'  fill="#000000" xmlns:x="http://ns.adobe.com/Extensibility/1.0/" xmlns:i="http://ns.adobe.com/AdobeIllustrator/10.0/" xmlns:graph="http://ns.adobe.com/Graphs/1.0/" xmlns="http://www.w3.org/2000/svg" xmlns:xlink="http://www.w3.org/1999/xlink" version="1.1" x="0px" y="0px" viewBox="0 0 64 64" enable-background="new 0 0 64 64" xml:space="preserve"><metadata><sfw xmlns="http://ns.adobe.com/SaveForWeb/1.0/"><slices></slices><sliceSourceBounds height="16384" width="16389" x="-8165" y="-8160" bottomLeftOrigin="true"></sliceSourceBounds></sfw></metadata><g><g><path d="M48,7H16c-4.962,0-9,4.038-9,9v32c0,4.963,4.038,9,9,9h32c4.963,0,9-4.037,9-9V16C57,11.038,52.963,7,48,7z M55,48    c0,3.859-3.141,7-7,7H16c-3.86,0-7-3.141-7-7V16c0-3.86,3.14-7,7-7h32c3.859,0,7,3.14,7,7V48z"></path><path d="M24.707,27.293c-0.391-0.391-1.023-0.391-1.414,0s-0.391,1.023,0,1.414L25.586,31H16c-0.552,0-1,0.448-1,1s0.448,1,1,1    h9.586l-2.293,2.293c-0.391,0.391-0.391,1.023,0,1.414C23.488,36.902,23.744,37,24,37s0.512-0.098,0.707-0.293l4-4    c0.391-0.391,0.391-1.023,0-1.414L24.707,27.293z"></path><path d="M48,31h-9.586l2.293-2.293c0.391-0.391,0.391-1.023,0-1.414s-1.023-0.391-1.414,0l-4,4c-0.391,0.391-0.391,1.023,0,1.414    l4,4C39.488,36.902,39.744,37,40,37s0.512-0.098,0.707-0.293c0.391-0.391,0.391-1.023,0-1.414L38.414,33H48c0.553,0,1-0.448,1-1    S48.553,31,48,31z"></path></g></g></svg>