<svg height='100px' width='100px'  fill="#000000" xmlns="http://www.w3.org/2000/svg" xmlns:xlink="http://www.w3.org/1999/xlink" version="1.1" x="0px" y="0px" viewBox="0 0 96 96" enable-background="new 0 0 96 96" xml:space="preserve"><g><path d="M83,38.38c-1.725-1.724-4.013-2.673-6.445-2.673H47.619V22.524c0-8.835-6.533-16.024-14.564-16.024H24.89   c-8.03,0-14.563,7.188-14.563,16.024v15.683h3V22.524c0-7.182,5.187-13.024,11.563-13.024h8.165   c6.376,0,11.564,5.842,11.564,13.024v13.183h-3.937c-5.028,0-9.119,4.091-9.119,9.119v35.556c0,5.028,4.091,9.119,9.119,9.119   h35.873c5.027,0,9.118-4.091,9.118-9.119V44.825C85.674,42.394,84.725,40.104,83,38.38z M82.674,80.381   c0,3.374-2.745,6.119-6.119,6.119H40.683c-3.374,0-6.119-2.745-6.119-6.119V44.825c0-3.374,2.745-6.119,6.119-6.119h35.872   c3.374,0,6.119,2.745,6.119,6.119V80.381z"></path><path d="M58.619,58.198c-1.878,0-3.405,1.527-3.405,3.405c0,1.312,0.766,2.49,1.905,3.054v2.391h3v-2.391   c1.139-0.564,1.904-1.743,1.904-3.054C62.023,59.726,60.496,58.198,58.619,58.198z M58.619,62.008   c-0.224,0-0.405-0.182-0.405-0.404s0.182-0.404,0.405-0.404c0.223,0,0.404,0.182,0.404,0.404S58.842,62.008,58.619,62.008z"></path></g></svg>