<svg height='100px' width='100px'  fill="#000000" xmlns="http://www.w3.org/2000/svg" xmlns:xlink="http://www.w3.org/1999/xlink" version="1.1" x="0px" y="0px" viewBox="0 0 512 512" style="enable-background:new 0 0 512 512;" xml:space="preserve"><g><g><g><g><g><path d="M274.637,355c-2.209,0-4-1.791-4-4v-70c0-2.209,1.791-4,4-4s4,1.791,4,4v70C278.637,353.209,276.846,355,274.637,355z"></path></g><g><path d="M244.636,355c-2.209,0-4-1.791-4-4v-70c0-2.209,1.791-4,4-4s4,1.791,4,4v70C248.636,353.209,246.845,355,244.636,355z"></path></g></g><g><g><path d="M232.569,246.78c-0.664,0-1.332-0.021-2.008-0.064c-12.238-0.784-22.192-8.694-25.209-19.446       c-1.106,0.161-2.226,0.242-3.354,0.242c-12.8,0-23.213-10.413-23.213-23.213c0-6.941,3.153-13.464,8.352-17.82       c-5.303-5.477-8.352-12.85-8.352-20.605c0-10.177,5.109-19.438,13.526-24.866c-0.477-2.354-0.718-4.75-0.718-7.156       c0-19.862,16.159-36.021,36.021-36.021c19.863,0,36.022,16.159,36.022,36.021v83.256       C263.637,231.142,250.878,246.78,232.569,246.78z M208.501,218.38c0.752,0,1.499,0.212,2.148,0.626       c1.044,0.665,1.722,1.776,1.835,3.009c0.843,9.195,8.487,16.07,18.588,16.717c13.959,0.892,24.564-11.011,24.564-21.625       v-83.256c0-15.451-12.571-28.021-28.022-28.021s-28.021,12.57-28.021,28.021c0,2.702,0.391,5.389,1.161,7.985       c0.551,1.857-0.308,3.843-2.039,4.712c-7.359,3.698-11.931,11.102-11.931,19.324c0,7.074,3.478,13.714,9.302,17.762       c1.173,0.815,1.822,2.193,1.704,3.616c-0.119,1.423-0.987,2.675-2.278,3.285c-5.302,2.504-8.728,7.906-8.728,13.763       c0,8.389,6.825,15.213,15.213,15.213c1.766,0,3.499-0.301,5.15-0.895C207.587,218.458,208.045,218.38,208.501,218.38z"></path></g><g><path d="M218.624,163.556c-18.755,0-25.021-13.003-25.687-20.213c-0.204-2.2,1.415-4.148,3.615-4.351       c2.188-0.207,4.133,1.401,4.349,3.589c0.16,1.467,2.063,14.082,20.046,12.897c2.208-0.146,4.109,1.523,4.255,3.728       c0.146,2.205-1.523,4.109-3.728,4.255C220.495,163.524,219.543,163.556,218.624,163.556z"></path></g><g><path d="M208.591,226.382c-0.121,0-0.216-0.003-0.283-0.006l0.387-7.99l-0.127-0.003c0.079-0.001,7.967-0.33,15.446-15.822       c0.959-1.99,3.35-2.827,5.341-1.863c1.99,0.96,2.824,3.352,1.863,5.341C221.889,225.359,210.821,226.382,208.591,226.382z"></path></g><g><path d="M286.706,246.78c-0.001,0-0.002,0-0.003,0c-18.308-0.001-31.066-15.639-31.066-29.673v-83.256       c0-19.862,16.159-36.021,36.021-36.021s36.021,16.159,36.021,36.021c0,2.405-0.241,4.8-0.718,7.156       c8.417,5.428,13.526,14.689,13.526,24.866c0,7.755-3.048,15.128-8.352,20.605c5.198,4.356,8.352,10.879,8.352,17.821       c0,12.8-10.413,23.213-23.213,23.213c-1.128,0-2.248-0.081-3.354-0.242c-3.018,10.752-12.972,18.662-25.209,19.446       C288.036,246.759,287.369,246.78,286.706,246.78z M291.658,105.83c-15.451,0-28.021,12.57-28.021,28.021v83.256       c0,10.23,9.865,21.672,23.067,21.673h0.001c0.494,0,0.991-0.016,1.495-0.048c10.102-0.647,17.745-7.522,18.588-16.717       c0.113-1.233,0.791-2.344,1.835-3.009s2.338-0.807,3.502-0.39c1.651,0.594,3.384,0.895,5.15,0.895       c8.389,0,15.213-6.824,15.213-15.213c0-5.856-3.426-11.259-8.728-13.763c-1.291-0.61-2.16-1.862-2.278-3.285       c-0.118-1.423,0.531-2.802,1.704-3.617c5.824-4.048,9.302-10.688,9.302-17.762c0-8.222-4.571-15.626-11.931-19.324       c-1.73-0.87-2.59-2.854-2.039-4.711c0.771-2.599,1.161-5.286,1.161-7.986C319.68,118.4,307.109,105.83,291.658,105.83z"></path></g><g><path d="M300.648,163.556c-0.919,0-1.869-0.031-2.85-0.096c-2.204-0.146-3.873-2.05-3.728-4.255s2.057-3.875,4.255-3.728       c17.979,1.194,19.891-11.456,20.047-12.902c0.237-2.184,2.197-3.787,4.379-3.564c2.186,0.22,3.787,2.145,3.585,4.332       C325.67,150.553,319.401,163.556,300.648,163.556z"></path></g><g><path d="M310.682,226.382c-2.229,0-13.298-1.021-22.626-20.345c-0.96-1.989-0.126-4.38,1.863-5.341       c1.989-0.962,4.38-0.127,5.342,1.863c7.479,15.493,15.366,15.821,15.445,15.822l-0.128,0.003l0.387,7.99       C310.897,226.379,310.803,226.382,310.682,226.382z"></path></g></g><g><path d="M318.684,362.316c-0.064,0-0.128-0.001-0.193-0.005l-0.387-0.023c-0.095-0.006-0.188-0.016-0.285-0.016l-118.297,0.008      c-0.134,0.01-0.267,0.019-0.402,0.022c-2.122,0.093-3.945-1.532-4.126-3.656c-3.166-37.034-17.702-71.637-42.038-100.068      c-21.719-25.375-33.681-57.769-33.682-91.213c0-37.267,14.68-72.458,41.335-99.09C187.247,41.658,222.424,27,259.659,27      l1.121,0.004c37.252,0.297,72.228,15.029,98.482,41.483C385.532,94.955,400,130.07,400,167.363      c0,33.686-12.114,66.258-34.112,91.715c-24.667,28.549-39.615,63-43.227,99.631      C322.459,360.765,320.729,362.316,318.684,362.316z M202.61,354.272h112.486c4.382-36.918,19.806-71.569,44.738-100.425      C380.577,229.843,392,199.129,392,167.363c0-72.406-58.894-131.782-131.284-132.359L259.659,35      c-35.099,0-68.268,13.827-93.397,38.934c-25.143,25.121-38.99,58.302-38.99,93.431c0,31.539,11.279,62.084,31.76,86.011      C183.653,282.141,198.676,316.955,202.61,354.272z"></path></g><g><path d="M317.818,398.637H199.636c-12.231,0-22.182-9.951-22.182-22.183c0-11.987,9.391-21.715,21.379-22.146l0.139-0.009      c0.22-0.016,0.439-0.027,0.663-0.027h118.182c0.28,0,0.556,0.016,0.831,0.034l0.222,0.015      C330.718,354.878,340,364.6,340,376.454C340,388.686,330.05,398.637,317.818,398.637z M199.636,362.272l-0.115,0.009      c-0.134,0.009-0.267,0.018-0.402,0.021c-7.662,0.275-13.665,6.491-13.665,14.151c0,7.82,6.362,14.183,14.182,14.183h118.182      c7.819,0,14.182-6.362,14.182-14.183c0-7.574-5.933-13.786-13.507-14.143l-0.389-0.023c-0.095-0.006-0.189-0.016-0.286-0.016      H199.636z"></path></g><g><path d="M317.818,435H199.636c-12.231,0-22.182-9.95-22.182-22.182c0-11.987,9.391-21.715,21.379-22.146l0.129-0.009      c0.224-0.016,0.446-0.027,0.673-0.027h118.182c0.279,0,0.556,0.016,0.83,0.034l0.223,0.014      c11.847,0.558,21.129,10.28,21.129,22.134C340,425.05,330.05,435,317.818,435z M199.636,398.637l-0.129,0.009      c-0.123,0.009-0.246,0.017-0.37,0.021c-7.679,0.275-13.682,6.491-13.682,14.151c0,7.819,6.362,14.182,14.182,14.182h118.182      c7.819,0,14.182-6.362,14.182-14.182c0-7.574-5.934-13.786-13.508-14.144l-0.376-0.022c-0.099-0.006-0.197-0.016-0.298-0.016      H199.636z"></path></g><g><path d="M51,115c-10.477,0-19-8.523-19-19s8.523-19,19-19s19,8.523,19,19S61.477,115,51,115z M51,85c-6.065,0-11,4.935-11,11      s4.935,11,11,11s11-4.935,11-11S57.065,85,51,85z"></path></g><g><path d="M456,225c-13.233,0-24-10.766-24-24s10.767-24,24-24s24,10.766,24,24S469.233,225,456,225z M456,185      c-8.822,0-16,7.178-16,16s7.178,16,16,16s16-7.178,16-16S464.822,185,456,185z"></path></g><g><path d="M258.637,465c-15.991,0-29-13.01-29-29v-5c0-2.209,1.791-4,4-4h50c2.209,0,4,1.791,4,4v5      C287.637,451.99,274.627,465,258.637,465z M237.636,435v1c0,11.579,9.421,21,21,21c11.579,0,21-9.421,21-21v-1H237.636z"></path></g><rect x="436" y="71" width="20" height="20"></rect><rect x="456" y="51" width="20" height="20"></rect><rect x="416" y="51" width="20" height="20"></rect><rect x="436" y="31" width="20" height="20"></rect><rect x="56" y="201" width="20" height="20"></rect><rect x="76" y="181" width="20" height="20"></rect><g><path d="M476,485H316c-2.209,0-4-1.791-4-4s1.791-4,4-4h160c2.209,0,4,1.791,4,4S478.209,485,476,485z"></path></g><g><path d="M386,485c-2.209,0-4-1.791-4-4V351c0-2.209,1.791-4,4-4s4,1.791,4,4v130C390,483.209,388.209,485,386,485z"></path></g><g><path d="M406,375c-1.023,0-2.048-0.391-2.828-1.172L386,356.657l-17.172,17.171c-1.561,1.563-4.096,1.563-5.656,0      c-1.563-1.562-1.563-4.095,0-5.656l20-20c1.561-1.563,4.096-1.563,5.656,0l20,20c1.563,1.562,1.563,4.095,0,5.656      C408.048,374.609,407.023,375,406,375z"></path></g><g><path d="M446,485c-2.209,0-4-1.791-4-4V261c0-2.209,1.791-4,4-4s4,1.791,4,4v220C450,483.209,448.209,485,446,485z"></path></g><g><path d="M466,285c-1.023,0-2.048-0.391-2.828-1.172L446,266.657l-17.172,17.171c-1.561,1.563-4.096,1.563-5.656,0      c-1.563-1.562-1.563-4.095,0-5.656l20-20c1.561-1.563,4.096-1.563,5.656,0l20,20c1.563,1.562,1.563,4.095,0,5.656      C468.048,284.609,467.023,285,466,285z"></path></g><g><path d="M196,485H36c-2.209,0-4-1.791-4-4s1.791-4,4-4h160c2.209,0,4,1.791,4,4S198.209,485,196,485z"></path></g><g><path d="M66,485c-2.209,0-4-1.791-4-4V261c0-2.209,1.791-4,4-4s4,1.791,4,4v220C70,483.209,68.209,485,66,485z"></path></g><g><path d="M86,285c-1.024,0-2.047-0.391-2.829-1.172L66,266.657l-17.171,17.171c-1.563,1.563-4.095,1.563-5.657,0      c-1.562-1.562-1.562-4.095,0-5.656l20-20c1.563-1.563,4.095-1.563,5.657,0l20,20c1.562,1.562,1.562,4.095,0,5.656      C88.047,284.609,87.024,285,86,285z"></path></g><g><path d="M126,485c-2.209,0-4-1.791-4-4V351c0-2.209,1.791-4,4-4s4,1.791,4,4v130C130,483.209,128.209,485,126,485z"></path></g><g><path d="M146,375c-1.024,0-2.047-0.391-2.829-1.172L126,356.657l-17.171,17.171c-1.563,1.563-4.095,1.563-5.657,0      c-1.562-1.562-1.562-4.095,0-5.656l20-20c1.563-1.563,4.095-1.563,5.657,0l20,20c1.562,1.562,1.562,4.095,0,5.656      C148.047,374.609,147.024,375,146,375z"></path></g></g></g></g></svg>