<svg height='100px' width='100px'  fill="#000000" xmlns="http://www.w3.org/2000/svg" data-name="Layer 1" viewBox="0 0 100 100" x="0px" y="0px"><title>40</title><g data-name="Group"><path data-name="Path" d="M89,26.9C84.4,13.9,70.4,4.4,55.6,4.4c-19,0-35.1,15.2-35.3,33.3l-11,26A2,2,0,0,0,11,66.4l9.7.9,1.9,9.1a11.1,11.1,0,0,0,10.8,8.8H34l11.4-.6a2,2,0,1,0-.2-4l-11.4.6a7,7,0,0,1-7.2-5.6L24.3,65.1a2,2,0,0,0-1.8-1.6l-8.5-.8L24.1,38.9a2,2,0,0,0,.2-.8C24.3,22,38.6,8.4,55.6,8.4c13.2,0,25.7,8.4,29.7,20v.2c2.7,5.7,1.2,18.3,0,28.3-.4,3.7-.9,7.1-1.1,10.1a74.9,74.9,0,0,0,.2,12.1,2,2,0,1,0,4-.4,71,71,0,0,1-.2-11.5c.2-2.8.6-6.3,1-9.9C90.6,46.3,92.1,33.7,89,26.9Z"></path><path data-name="Compound Path" d="M54.3,76.5V93.6a2,2,0,0,0,4,0V76.5H71.9a2,2,0,0,0,2-2V60.4a8.3,8.3,0,1,0-4,0V72.5H58.3V33.9a8.3,8.3,0,1,0-4,0V59.9H41v-8a8.3,8.3,0,1,0-4,0v10a2,2,0,0,0,2,2H54.3V76.5ZM67.6,52.4a4.3,4.3,0,1,1,4.3,4.3A4.3,4.3,0,0,1,67.6,52.4ZM34.7,43.8A4.3,4.3,0,1,1,39,48.1,4.3,4.3,0,0,1,34.7,43.8ZM52.1,25.9a4.3,4.3,0,1,1,4.3,4.3A4.3,4.3,0,0,1,52.1,25.9Z"></path></g></svg>