<svg height='100px' width='100px'  fill="#000000" xmlns:dc="http://purl.org/dc/elements/1.1/" xmlns:cc="http://creativecommons.org/ns#" xmlns:rdf="http://www.w3.org/1999/02/22-rdf-syntax-ns#" xmlns:svg="http://www.w3.org/2000/svg" xmlns="http://www.w3.org/2000/svg" xmlns:sodipodi="http://sodipodi.sourceforge.net/DTD/sodipodi-0.dtd" xmlns:inkscape="http://www.inkscape.org/namespaces/inkscape" version="1.1" x="0px" y="0px" viewBox="0 0 100 100" xml:space="preserve"><path style="" d="m 50.392792,7.525226 c -11.002541,0 -17.54782,5.569829 -18.929146,16.106049 -0.4551,3.470944 -0.272745,7.202966 0.547718,11.088949 4.004567,18.982829 13.621124,30.443826 16.619341,33.645556 -0.235563,0.139415 -0.487652,0.261052 -0.7136,0.406876 -0.352543,0.227551 -0.697849,0.46682 -1.03597,0.7136 -0.713098,0.524007 -0.866684,1.527851 -0.344281,2.240949 0.314084,0.427859 0.802186,0.654132 1.295746,0.654132 0.328505,0 0.658364,-0.101532 0.945205,-0.309851 0.285241,-0.209923 0.576614,-0.411684 0.87948,-0.607185 0.514392,-0.333313 1.060308,-0.647444 1.624377,-0.932687 0.749954,-0.379785 1.055849,-1.265273 0.741766,-2.031252 0.01282,-0.01282 0.02947,-0.02474 0.04069,-0.03756 2.898864,-3.070328 12.665475,-14.573866 16.710104,-33.742581 0.820462,-3.887586 1.004422,-7.619607 0.547719,-11.088949 C 67.943818,13.095052 61.39854,7.525223 50.392795,7.525223 Z m 0.0032,3.208064 c 9.427315,0 14.579375,4.356383 15.75238,13.317381 0.408629,3.108787 0.236513,6.477324 -0.507032,10.009162 C 62.005347,51.291165 53.336524,62.225575 50.395996,65.542683 47.452264,62.22237 38.781914,51.283152 35.147517,34.059833 34.40237,30.527995 34.23346,27.16106 34.640487,24.050671 35.815096,15.089673 40.970284,10.73329 50.395996,10.73329 Z m 0,3.571125 c -6.491596,0 -11.774379,5.279654 -11.774379,11.771249 0,6.491596 5.282784,11.774379 11.774379,11.774379 6.491596,0 11.77125,-5.282783 11.77125,-11.774379 0,-6.491595 -5.279654,-11.771249 -11.77125,-11.771249 z m 0,3.208064 c 4.722471,0 8.566315,3.842241 8.566315,8.566315 0,4.724074 -3.842241,8.566315 -8.566315,8.566315 -4.724075,0 -8.569445,-3.842241 -8.569445,-8.566315 0,-4.724074 3.846973,-8.566315 8.569445,-8.566315 z M 12.177701,42.798288 5.9180623,92.474777 H 94.081938 L 88.745596,42.798288 H 71.281205 c -0.886163,0 -1.602469,0.716303 -1.602469,1.602467 0,0.886165 0.716306,1.602468 1.602469,1.602468 h 14.584958 l 4.644649,43.266619 H 9.5517823 L 15.007057,46.003223 h 14.609995 c 0.886172,0 1.602467,-0.716303 1.602467,-1.602468 0,-0.886164 -0.716295,-1.602467 -1.602467,-1.602467 z m 64.408546,7.60859 c -0.960578,-0.02569 -1.923936,0.09938 -2.863783,0.366188 -0.852513,0.238768 -1.349929,1.127136 -1.107956,1.978046 0.198706,0.706688 0.841195,1.167423 1.53987,1.167423 0.145825,0 0.293953,-0.02093 0.438176,-0.06259 0.833283,-0.233961 1.689348,-0.306221 2.522634,-0.194048 0.900585,0.112173 1.685794,-0.499043 1.802776,-1.373991 0.118583,-0.879754 -0.497441,-1.684193 -1.373991,-1.802776 -0.31809,-0.04246 -0.637532,-0.06967 -0.957726,-0.07825 z m 5.671233,3.743263 c -0.20762,-0.0093 -0.420045,0.02051 -0.625962,0.09703 -0.831682,0.307673 -1.252881,1.230945 -0.945207,2.05942 0.137812,0.371773 0.209697,0.750381 0.209697,1.117346 l -0.0063,0.187789 c -0.01923,0.266009 -0.06996,0.530192 -0.156497,0.810624 -0.261202,0.8445 0.213379,1.743484 1.057878,2.003084 0.158645,0.04968 0.315561,0.07198 0.472604,0.07198 0.685856,0 1.318955,-0.440804 1.53048,-1.129865 0.158645,-0.509584 0.257348,-1.027007 0.294205,-1.543001 0.008,-0.133005 0.0125,-0.267612 0.0125,-0.400617 0,-0.749955 -0.13919,-1.502438 -0.410005,-2.231561 -0.230756,-0.62376 -0.810598,-1.014286 -1.433457,-1.04223 z m -3.358295,8.384786 c -0.406026,-0.05609 -0.832858,0.04072 -1.186203,0.306722 l -0.13145,0.09703 c -0.541634,0.379785 -1.247771,0.657563 -2.159575,0.845052 -0.866935,0.177874 -1.422015,1.026606 -1.242539,1.893541 0.157042,0.757967 0.822893,1.280096 1.56804,1.280096 0.107365,0 0.216534,-0.01202 0.325501,-0.03442 1.349278,-0.27883 2.44489,-0.725141 3.358296,-1.36773 l 0.215958,-0.156497 c 0.705086,-0.535228 0.843473,-1.538995 0.309852,-2.244081 -0.267612,-0.352543 -0.651854,-0.563618 -1.057879,-0.619705 z m -9.602286,1.796516 -3.198674,0.131451 c -0.884562,0.03686 -1.568942,0.785159 -1.530482,1.671324 0.03525,0.860525 0.746825,1.533611 1.599337,1.533611 0.02404,0 0.04482,-0.0015 0.06886,-0.0032 l 3.208062,-0.131456 c 0.882961,-0.04006 1.569016,-0.791494 1.527352,-1.674453 -0.04006,-0.886165 -0.865208,-1.575426 -1.674454,-1.527352 z m -9.718088,0.604055 c -1.158584,0.14262 -2.270046,0.328181 -3.29883,0.547719 -0.865333,0.182681 -1.417432,1.035995 -1.233148,1.90293 0.160246,0.75316 0.8277,1.267577 1.56804,1.267577 0.11057,0 0.222717,-0.01042 0.33489,-0.03442 0.939045,-0.198706 1.957764,-0.369293 3.023405,-0.5039 0.878152,-0.107366 1.503342,-0.908974 1.392769,-1.787127 -0.108968,-0.879754 -0.902564,-1.514557 -1.787126,-1.39277 z m -34.737862,2.804318 c -0.239168,-0.0019 -0.474983,0.01106 -0.707339,0.03756 -0.919816,0.100956 -1.80836,0.383767 -2.638438,0.835663 -0.777197,0.424654 -1.063137,1.394898 -0.638483,2.172095 0.291649,0.535224 0.841144,0.83879 1.408418,0.83879 0.257998,0 0.521628,-0.06418 0.766807,-0.197178 0.46151,-0.251588 0.952115,-0.408729 1.458495,-0.463213 0.216333,-0.02564 0.437874,-0.02572 0.651002,0.0032 0.90219,0.11698 1.681133,-0.500571 1.796517,-1.37712 0.115362,-0.878152 -0.500571,-1.684269 -1.377122,-1.799646 -0.238761,-0.03125 -0.480689,-0.04807 -0.719857,-0.05008 z m 18.212417,5.461534 c -0.405825,-0.05769 -0.831255,0.03992 -1.186201,0.306722 -0.823668,0.621758 -1.674704,1.217025 -2.532024,1.771478 -0.741942,0.482343 -0.954945,1.475498 -0.472603,2.219043 0.306072,0.472728 0.821816,0.729247 1.345823,0.729247 0.299661,0 0.602401,-0.08198 0.873218,-0.256644 0.918214,-0.596118 1.833724,-1.239434 2.716684,-1.90606 0.705086,-0.533622 0.845,-1.537393 0.312981,-2.244081 -0.26681,-0.350139 -0.652053,-0.562016 -1.057878,-0.619705 z m -24.697403,0.259776 c -0.617676,0.08278 -1.160236,0.530691 -1.333303,1.173681 -0.201911,0.743545 -0.32147,1.501988 -0.359929,2.25034 -0.008,0.184284 -0.01252,0.370997 -0.01252,0.566498 0.0016,0.314084 0.0165,0.626464 0.04695,0.938945 0.08493,0.825271 0.780627,1.439718 1.593078,1.439718 0.05288,0 0.105063,-0.0046 0.162751,-0.0095 0.879754,-0.09134 1.521593,-0.874473 1.433457,-1.75583 -0.02243,-0.209923 -0.0297,-0.424053 -0.0313,-0.625964 0,-0.133004 0.003,-0.266083 0.0094,-0.397487 0.02564,-0.519198 0.109368,-1.048763 0.250385,-1.571168 0.232358,-0.854115 -0.27262,-1.734772 -1.126735,-1.965527 -0.211926,-0.05969 -0.426331,-0.07141 -0.632223,-0.04381 z m 16.196815,4.679079 c -0.208422,0.008 -0.421324,0.05881 -0.622834,0.153356 -0.939046,0.440678 -1.894819,0.850535 -2.841877,1.2175 -0.825271,0.317289 -1.235927,1.245067 -0.917036,2.071941 0.245177,0.634577 0.85186,1.023451 1.496052,1.023451 0.192296,0 0.386796,-0.03271 0.575887,-0.10642 1.017567,-0.392601 2.042095,-0.830876 3.048444,-1.302005 0.801234,-0.374977 1.146516,-1.330173 0.769936,-2.131407 -0.280031,-0.602127 -0.88331,-0.950538 -1.508572,-0.926426 z m -12.450422,2.907601 c -0.617823,0.08955 -1.152524,0.543213 -1.320783,1.186203 -0.219538,0.85732 0.292926,1.731866 1.148644,1.953007 0.346132,0.08974 0.699151,0.158644 1.048488,0.200308 0.410232,0.04968 0.821316,0.07512 1.23315,0.07512 0.501573,0 1.003871,-0.03606 1.505443,-0.100154 0.878152,-0.11057 1.501812,-0.912105 1.389639,-1.790257 -0.112173,-0.878153 -0.908899,-1.497005 -1.790256,-1.389639 -0.647397,0.08333 -1.299351,0.103551 -1.946748,0.02505 -0.211525,-0.02724 -0.423902,-0.06918 -0.632223,-0.12206 -0.21433,-0.05729 -0.429411,-0.0674 -0.635354,-0.03756 z" fill="#000000" fill-opacity="1" stroke="none"></path></svg>