<svg height='100px' width='100px'  fill="#000000" xmlns="http://www.w3.org/2000/svg" xmlns:xlink="http://www.w3.org/1999/xlink" version="1.1" x="0px" y="0px" viewBox="0 0 48 48" enable-background="new 0 0 48 48" xml:space="preserve"><path d="M41.889,15.833c0-2.063-1.68-3.743-3.743-3.743c-1.201,0-2.263,0.58-2.945,1.463l-7.741-4.469  c0.18-0.438,0.283-0.917,0.283-1.42c0-2.063-1.679-3.743-3.743-3.743S20.256,5.6,20.256,7.664c0,0.503,0.103,0.981,0.284,1.42  l-7.741,4.469c-0.686-0.884-1.745-1.463-2.947-1.463c-2.063,0-3.743,1.679-3.743,3.743c0,1.892,1.417,3.445,3.243,3.692v8.952  c-1.826,0.246-3.243,1.799-3.243,3.691c0,2.063,1.679,3.744,3.743,3.744c1.202,0,2.262-0.58,2.947-1.463l7.741,4.469  c-0.18,0.438-0.283,0.916-0.283,1.418c0,2.064,1.679,3.744,3.743,3.744s3.743-1.68,3.743-3.744c0-0.502-0.103-0.98-0.284-1.418  l7.742-4.469c0.684,0.883,1.744,1.463,2.945,1.463c2.064,0,3.744-1.68,3.744-3.744c0-1.893-1.418-3.445-3.244-3.691v-8.952  C40.471,19.278,41.889,17.726,41.889,15.833z M38.146,13.09c1.514,0,2.743,1.23,2.743,2.743c0,1.513-1.229,2.743-2.743,2.743  c-1.513,0-2.742-1.23-2.742-2.743C35.403,14.321,36.633,13.09,38.146,13.09z M35.198,29.891l-7.739-4.471  c0.18-0.438,0.283-0.916,0.283-1.418c0-0.502-0.104-0.981-0.283-1.42l7.739-4.469c0.588,0.758,1.453,1.278,2.447,1.413v8.951  C36.651,28.611,35.786,29.131,35.198,29.891z M24,26.744c-1.512,0-2.743-1.23-2.743-2.744c0-1.513,1.23-2.743,2.743-2.743  c1.512,0,2.743,1.23,2.743,2.743C26.742,25.514,25.512,26.744,24,26.744z M10.352,28.477v-8.952c0.995-0.135,1.86-0.655,2.447-1.413  l7.741,4.469c-0.181,0.438-0.284,0.917-0.284,1.42c0,0.501,0.103,0.98,0.283,1.419l-7.741,4.469  C12.211,29.131,11.346,28.611,10.352,28.477z M34.687,14.414c-0.181,0.438-0.283,0.917-0.283,1.42s0.104,0.981,0.283,1.419  l-7.74,4.469c-0.588-0.758-1.453-1.278-2.447-1.413v-8.952c0.995-0.135,1.859-0.655,2.447-1.413L34.687,14.414z M24,4.921  c1.512,0,2.743,1.23,2.743,2.743s-1.23,2.743-2.743,2.743c-1.513,0-2.743-1.23-2.743-2.743S22.486,4.921,24,4.921z M21.051,9.943  c0.587,0.758,1.453,1.278,2.447,1.413v8.952c-0.995,0.135-1.86,0.655-2.447,1.413l-7.741-4.469c0.181-0.438,0.284-0.917,0.284-1.419  s-0.103-0.981-0.284-1.42L21.051,9.943z M7.109,15.833c0-1.512,1.23-2.743,2.743-2.743c1.513,0,2.743,1.23,2.743,2.743  c0,1.513-1.23,2.743-2.743,2.743C8.339,18.576,7.109,17.346,7.109,15.833z M9.852,34.912c-1.512,0-2.743-1.23-2.743-2.744  c0-1.512,1.23-2.742,2.743-2.742c1.513,0,2.743,1.23,2.743,2.742C12.594,33.682,11.363,34.912,9.852,34.912z M13.311,33.588  c0.181-0.438,0.284-0.916,0.284-1.42c0-0.502-0.103-0.98-0.284-1.418l7.741-4.471c0.588,0.758,1.453,1.277,2.448,1.412v8.953  c-0.995,0.135-1.86,0.654-2.448,1.412L13.311,33.588z M24,43.08c-1.512,0-2.743-1.23-2.743-2.744c0-1.512,1.23-2.742,2.743-2.742  c1.512,0,2.743,1.23,2.743,2.742C26.741,41.85,25.512,43.08,24,43.08z M26.946,38.059c-0.587-0.758-1.453-1.277-2.447-1.414v-8.951  c0.995-0.135,1.86-0.654,2.447-1.412l7.74,4.469c-0.181,0.438-0.283,0.918-0.283,1.42s0.104,0.98,0.283,1.42L26.946,38.059z   M40.889,32.168c0,1.512-1.229,2.744-2.743,2.744c-1.513,0-2.742-1.23-2.742-2.744c0-1.512,1.229-2.742,2.742-2.742  C39.659,29.426,40.889,30.656,40.889,32.168z"></path></svg>